<?xml version="1.0" encoding="UTF-8" standalone="no"?>
<svg
   width="24"
   height="24"
   viewBox="0 0 24 24"
   fill="none"
   version="1.1"
   id="svg6"
   sodipodi:docname="Minus.svg"
   inkscape:version="1.2.2 (732a01da63, 2022-12-09)"
   xmlns:inkscape="http://www.inkscape.org/namespaces/inkscape"
   xmlns:sodipodi="http://sodipodi.sourceforge.net/DTD/sodipodi-0.dtd"
   xmlns="http://www.w3.org/2000/svg"
   xmlns:svg="http://www.w3.org/2000/svg">
  <defs
     id="defs10" />
  <sodipodi:namedview
     id="namedview8"
     pagecolor="#ffffff"
     bordercolor="#999999"
     borderopacity="1"
     inkscape:showpageshadow="0"
     inkscape:pageopacity="0"
     inkscape:pagecheckerboard="0"
     inkscape:deskcolor="#d1d1d1"
     showgrid="false"
     inkscape:zoom="16"
     inkscape:cx="-11.53125"
     inkscape:cy="10.375"
     inkscape:window-width="1920"
     inkscape:window-height="1009"
     inkscape:window-x="-8"
     inkscape:window-y="-8"
     inkscape:window-maximized="1"
     inkscape:current-layer="svg6" />
  <path
     d="m 7.00739,12 c 0,-0.4142 0.33578,-0.75 0.75,-0.75 H 11.25 l 0.05468,-4.63e-4 c 0.141804,-0.0012 0.215399,0.0018 0.629599,0.0018 0.418106,0 0.809978,-0.0011 0.809978,-0.0011 l 0.0018,0.0036 L 16.2427,11.25 c 0.4142,-4.63e-4 0.75,0.3358 0.75,0.75 0,0.4142 -0.3358,0.75 -0.75,0.75 H 12.75 l -0.08984,4.12e-4 c -0.414295,0.0019 0.496231,-0.0039 0.08203,-0.0039 -0.4142,0 0.418205,-9.67e-4 0.0039,0 L 11.25,12.75 H 7.75739 c -0.41422,0 -0.75,-0.3358 -0.75,-0.75 z"
     fill="black"
     id="path2"
     style="fill:#2a3a41;fill-opacity:1"
     sodipodi:nodetypes="sscssccssscssscss" />
  <path
     fill-rule="evenodd"
     clip-rule="evenodd"
     d="M7.31673 3.76876C10.4043 3.42368 13.5957 3.42368 16.6832 3.76876C18.5096 3.97288 19.9845 5.41153 20.1994 7.24849C20.5686 10.4054 20.5686 13.5946 20.1994 16.7515C19.9845 18.5885 18.5096 20.0271 16.6832 20.2313C13.5957 20.5763 10.4043 20.5763 7.31673 20.2313C5.49035 20.0271 4.01545 18.5885 3.8006 16.7515C3.43137 13.5946 3.43137 10.4054 3.8006 7.24849C4.01545 5.41153 5.49035 3.97288 7.31673 3.76876ZM16.5166 5.25948C13.5398 4.92677 10.4602 4.92677 7.48334 5.25948C6.33891 5.38738 5.42286 6.29063 5.29045 7.42274C4.93476 10.4639 4.93476 13.5361 5.29045 16.5773C5.42286 17.7094 6.33891 18.6126 7.48334 18.7405C10.4602 19.0732 13.5398 19.0732 16.5166 18.7405C17.6611 18.6126 18.5771 17.7094 18.7095 16.5773C19.0652 13.5361 19.0652 10.4639 18.7095 7.42274C18.5771 6.29063 17.6611 5.38738 16.5166 5.25948Z"
     fill="black"
     id="path4"
     style="fill:#2a3a41;fill-opacity:1" />
</svg>
